# xmcd CD database file
#
# Track frame offsets:
#	150
#	19133
#	40529
#	59509
#
# Disc length: 1077 seconds
#
# Revision: 0
# Processed by: cddbd v1.5.2PL0 Copyright (c) Steve Scherf et al.
# Submitted via: CDex 1.70beta2
#
DISCID=2a043304
DTITLE=黒崎真音 / 刹那の果実
DYEAR=2015
DGENRE=Soundtrack
TTITLE0=刹那の果実
TTITLE1=Red Alert Carpet
TTITLE2=刹那の果実 <instrumental>
TTITLE3=Red Alert Carpet <instrumental>
EXTD= YEAR: 2015
EXTT0=
EXTT1=
EXTT2=
EXTT3=
PLAYORDER=
